<svg xmlns="http://www.w3.org/2000/svg" viewBox="0 0 520 120" width="520" height="120">
  <!-- Background navy -->
  <rect width="520" height="120" fill="#0D1B2A"/>

  <!-- ICON (scaled down, 100x100 centered at x=10 y=10) -->
  <g transform="translate(10,10) scale(0.4167)">
    <circle cx="120" cy="120" r="108" fill="#FFFFFF"/>
    <circle cx="120" cy="120" r="108" fill="none" stroke="#FFFFFF" stroke-width="8"/>
    <circle cx="120" cy="120" r="98" fill="none" stroke="#0D1B2A" stroke-width="2"/>
    <rect x="38" y="50" width="28" height="112" rx="2" fill="#0D1B2A"/>
    <rect x="38" y="140" width="82" height="24" rx="2" fill="#0D1B2A"/>
    <polygon points="80,55 90,28 104,52" fill="#0D1B2A"/>
    <polygon points="112,42 128,18 140,42" fill="#0D1B2A"/>
    <ellipse cx="120" cy="75" rx="42" ry="34" fill="#0D1B2A"/>
    <ellipse cx="148" cy="90" rx="26" ry="20" fill="#0D1B2A"/>
    <path d="M96,100 L96,125 Q108,130 120,128 L142,118 Q162,110 168,92 Q172,78 162,66 Q150,52 130,48 Q110,44 96,56 Z" fill="#0D1B2A"/>
    <ellipse cx="150" cy="70" rx="12" ry="11" fill="#FFFFFF"/>
    <circle cx="152" cy="70" r="5" fill="#0D1B2A"/>
    <circle cx="155" cy="67" r="2" fill="#FFFFFF"/>
    <path d="M138,122 C162,114 176,130 164,146 C152,162 124,158 122,172 C120,184 140,192 158,187"
          fill="none" stroke="#0D1B2A" stroke-width="22" stroke-linecap="round" stroke-linejoin="round"/>
  </g>

  <!-- Divider line -->
  <rect x="122" y="20" width="1.5" height="80" fill="#D4FF6A" opacity="0.6"/>

  <!-- WORDMARK -->
  <!-- LS -->
  <text x="140" y="58" font-family="'Barlow Condensed', 'Arial Narrow', sans-serif" font-weight="900" font-size="52" fill="#FFFFFF" letter-spacing="-1">LS</text>
  <!-- CONFEX -->
  <text x="140" y="88" font-family="'Barlow Condensed', 'Arial Narrow', sans-serif" font-weight="700" font-size="26" fill="#D4FF6A" letter-spacing="6">CONFEX</text>
  <!-- Tagline -->
  <text x="141" y="104" font-family="'Barlow', 'Arial', sans-serif" font-weight="400" font-size="10" fill="#FFFFFF" letter-spacing="3" opacity="0.6">CONFECÇÕES</text>
</svg>
